<svg width="667" height="584" viewBox="0 0 667 584" fill="none" xmlns="http://www.w3.org/2000/svg">
    <path fill-rule="evenodd" clip-rule="evenodd" d="M488 396L512.666 354.333H630.333L666.666 291.667L594 166.667H491.666L456.333 104.667H416.666V62.6667H481.333L516.666 125H569.666L496.666 0H354.333V166.667H412L436.333 208.333H354.333V291.667H429.666L464.666 229.333H558.333L582.333 271H489L454 333.333H354.333V479.333H467.666L443.666 521H354.333V583.333H496.666L606 396H536.333L512 437.667H416.666V396H488Z" fill="#13EC13"/>
    <path fill-rule="evenodd" clip-rule="evenodd" d="M178.667 396L154 354.333H36.3333L0 291.667L72.6667 166.667H175L210.333 104.667H250V62.6667H185.333L150 125H97L170 0H312.667V166.667H254.667L230.333 208.333H312.667V291.667H237L202 229.333H108.333L84.3333 271H177.667L212.667 333.333H312.667V479.333H199L223 521H312.667V583.333H170L60.6667 396H130.333L154.667 437.667H250V396H178.667Z" fill="#43FF43"/>
    </svg>
    