<svg width="48" height="44" viewBox="0 0 48 44" fill="none" xmlns="http://www.w3.org/2000/svg">
    <path fill-rule="evenodd" clip-rule="evenodd" d="M45 0H3C1.3 0 0 1.3 0 3V33.6C0 35.3 1.3 36.6 3 36.6H17.5L21.1 41.8C22.1 43.2 23.9 43.5 25.3 42.5C25.5 42.3 25.7 42.1 25.9 41.9L30.1 36.6H45C46.7 36.6 48 35.3 48 33.6V3C48 1.3 46.7 0 45 0ZM19.3 27.5C19.1 27.7 19 27.8 18.8 27.8L13.8 29C13.3 29.1 12.9 28.7 13 28.2L14.2 23.2C14.2 23.1 14.3 22.9 14.4 22.8L14.5 22.7C14.6 22.6 14.9 22.6 15.1 22.7L19.3 26.9C19.4 27.1 19.4 27.4 19.3 27.5ZM31.4 15.2L21.1 25.5C20.9 25.7 20.6 25.7 20.5 25.5L16.4 21.4C16.2 21.3 16.2 21 16.4 20.8L26.6 10.5C26.8 10.3 27.1 10.3 27.2 10.5L31.3 14.6C31.5 14.8 31.5 15 31.4 15.2ZM34.5 12.2L33.3 13.4C33.1 13.6 32.8 13.6 32.7 13.4L28.6 9.3C28.4 9.1 28.4 8.8 28.6 8.7L29.7 7.5C30.4 6.8 31.6 6.8 32.3 7.5L34.5 9.7C35.2 10.4 35.2 11.5 34.5 12.2Z" fill="#8D77DD"/>
    </svg>
    