<svg width="512" height="512" viewBox="0 0 512 512" fill="none" xmlns="http://www.w3.org/2000/svg">
    <path d="M256 512C397.385 512 512 397.385 512 256C512 114.615 397.385 0 256 0C114.615 0 0 114.615 0 256C0 397.385 114.615 512 256 512Z" fill="#F22F46"/>
    <path d="M256 444C359.83 444 444 359.83 444 256C444 152.17 359.83 68 256 68C152.17 68 68 152.17 68 256C68 359.83 152.17 444 256 444Z" fill="white"/>
    <path d="M193 246C222.271 246 246 222.271 246 193C246 163.729 222.271 140 193 140C163.729 140 140 163.729 140 193C140 222.271 163.729 246 193 246Z" fill="#F22F46"/>
    <path d="M319 246C348.271 246 372 222.271 372 193C372 163.729 348.271 140 319 140C289.729 140 266 163.729 266 193C266 222.271 289.729 246 319 246Z" fill="#F22F46"/>
    <path d="M193 372C222.271 372 246 348.271 246 319C246 289.729 222.271 266 193 266C163.729 266 140 289.729 140 319C140 348.271 163.729 372 193 372Z" fill="#F22F46"/>
    <path d="M319 372C348.271 372 372 348.271 372 319C372 289.729 348.271 266 319 266C289.729 266 266 289.729 266 319C266 348.271 289.729 372 319 372Z" fill="#F22F46"/>
    </svg>
    