<svg width="448" height="448" viewBox="0 0 448 448" fill="none" xmlns="http://www.w3.org/2000/svg">
    <path
        d="M412.17 0H38.28C17.85 0 0 14.7 0 34.89V409.6C0 429.91 17.85 448 38.28 448H412.06C432.6 448 448 429.8 448 409.61V34.89C448.12 14.7 432.6 0 412.17 0ZM246 355H142.32L100.75 106.44L191.5 97.82L213.5 274.69C234.03 241.24 259.38 188.69 259.38 152.82C259.38 133.2 256.02 119.82 250.77 108.82L333.4 92.1C342.96 107.88 347.26 124.1 347.26 144.67C347.25 210.17 291.34 295.26 246 355Z"
        fill="white" />
</svg>