<svg width="531" height="653" viewBox="0 0 531 653" fill="none" xmlns="http://www.w3.org/2000/svg">
<path fill-rule="evenodd" clip-rule="evenodd" d="M240.847 153.666L127.847 86.9997C124.912 85.3596 122.338 83.1441 120.278 80.486C118.219 77.8279 116.717 74.7817 115.863 71.5297C115.008 68.2777 114.819 64.8867 115.305 61.5596C115.791 58.2326 116.944 55.0378 118.693 52.1665C120.443 49.2952 122.754 46.8064 125.488 44.8489C128.222 42.8915 131.323 41.5056 134.604 40.7743C137.886 40.0429 141.282 39.9812 144.588 40.5927C147.895 41.2041 151.044 42.4763 153.847 44.3331L265.847 111L240.847 153.666Z" fill="#AECBFA"/>
<path fill-rule="evenodd" clip-rule="evenodd" d="M249.514 268.667L21.847 137C19.0016 135.358 16.5075 133.173 14.507 130.567C12.5064 127.962 11.0387 124.988 10.1875 121.815C8.46839 115.408 9.36508 108.58 12.6803 102.833C15.9955 97.0869 21.4577 92.8929 27.8651 91.1738C34.2726 89.4547 41.1006 90.3514 46.847 93.6666L249.514 211V268.667Z" fill="#AECBFA"/>
<path fill-rule="evenodd" clip-rule="evenodd" d="M518.847 102.666C515.459 97.2295 510.136 93.2783 503.951 91.6084C497.766 89.9385 491.178 90.6738 485.514 93.6664L290.514 205V153.333L403.514 86.6664C408.964 83.2844 412.883 77.9122 414.439 71.6893C415.995 65.4663 415.065 58.8821 411.847 53.3331C408.409 47.9472 403.038 44.0824 396.839 42.5326C390.64 40.9828 384.083 41.8656 378.514 44.9997L253.847 117.666C249.895 119.987 246.618 123.298 244.338 127.274C242.058 131.249 240.855 135.75 240.847 140.333V625C240.441 628.502 240.78 632.052 241.842 635.414C242.905 638.776 244.667 641.876 247.012 644.509C249.357 647.142 252.233 649.25 255.451 650.693C258.668 652.136 262.154 652.882 265.681 652.882C269.207 652.882 272.693 652.136 275.911 650.693C279.128 649.25 282.004 647.142 284.349 644.509C286.695 641.876 288.457 638.776 289.519 635.414C290.581 632.052 290.92 628.502 290.514 625V263L509.514 137C515.269 133.652 519.476 128.173 521.222 121.747C522.969 115.322 522.116 108.467 518.847 102.666Z" fill="#669DF6"/>
<path d="M265.847 56C281.311 56 293.847 43.464 293.847 28C293.847 12.536 281.311 0 265.847 0C250.383 0 237.847 12.536 237.847 28C237.847 43.464 250.383 56 265.847 56Z" fill="#669DF6"/>
<path d="M181.514 285.667C185.345 287.76 188.542 290.845 190.77 294.598C192.999 298.351 194.177 302.635 194.181 307V443C194.201 447.415 193.037 451.754 190.809 455.565C188.581 459.376 185.371 462.519 181.514 464.667C177.739 466.774 173.503 467.918 169.181 468C164.758 467.882 160.422 466.741 156.514 464.667L12.5139 381.667C6.76759 378.352 2.57355 372.89 0.854464 366.482C-0.864619 360.075 0.0320829 353.247 3.34729 347.5C6.66249 341.754 12.1246 337.56 18.5321 335.841C24.9396 334.122 31.7676 335.018 37.5139 338.334L144.181 399.667V321.667L95.8473 294C90.3483 290.668 86.3449 285.344 84.6688 279.137C82.9927 272.929 83.7729 266.314 86.8473 260.667C90.1209 255.104 95.4449 251.045 101.677 249.363C107.909 247.68 114.552 248.507 120.181 251.667L181.514 285.667Z" fill="#AECBFA"/>
<path d="M40.8467 261.667C56.3107 261.667 68.8467 249.131 68.8467 233.667C68.8467 218.203 56.3107 205.667 40.8467 205.667C25.3827 205.667 12.8467 218.203 12.8467 233.667C12.8467 249.131 25.3827 261.667 40.8467 261.667Z" fill="#AECBFA"/>
<path d="M410.18 250.667C415.809 247.507 422.452 246.68 428.684 248.363C434.916 250.045 440.24 254.104 443.513 259.667C446.588 265.314 447.368 271.929 445.692 278.137C444.016 284.344 440.012 289.668 434.513 293L386.18 320.667V398.667L492.847 337.334C495.692 335.692 498.833 334.627 502.09 334.199C505.347 333.772 508.656 333.99 511.828 334.841C515.001 335.692 517.975 337.16 520.58 339.16C523.186 341.161 525.372 343.655 527.013 346.5C528.655 349.346 529.72 352.486 530.148 355.743C530.575 359 530.357 362.309 529.506 365.482C528.655 368.655 527.187 371.629 525.187 374.234C523.186 376.84 520.692 379.025 517.847 380.667L373.847 463.667C369.938 465.741 365.603 466.882 361.18 467C356.858 466.918 352.622 465.774 348.847 463.667C344.99 461.519 341.78 458.376 339.552 454.565C337.324 450.754 336.159 446.415 336.18 442V307C336.184 302.635 337.362 298.351 339.59 294.598C341.819 290.845 345.016 287.76 348.847 285.667L410.18 250.667Z" fill="#4285F4"/>
<path d="M490.181 261.667C505.645 261.667 518.181 249.131 518.181 233.667C518.181 218.203 505.645 205.667 490.181 205.667C474.717 205.667 462.181 218.203 462.181 233.667C462.181 249.131 474.717 261.667 490.181 261.667Z" fill="#4285F4"/>
</svg>
